<?xml version="1.0" encoding="UTF-8" standalone="no"?>
<!-- Created with Inkscape (http://www.inkscape.org/) -->

<svg
   width="150.75848mm"
   height="127.50799mm"
   viewBox="0 0 150.75848 127.50799"
   version="1.1"
   id="svg1"
   xml:space="preserve"
   inkscape:version="1.4.2 (f4327f4, 2025-05-13)"
   sodipodi:docname="kiwi.svg"
   inkscape:export-filename="C:\Downloads\kwii1.svg"
   inkscape:export-xdpi="96"
   inkscape:export-ydpi="96"
   xmlns:inkscape="http://www.inkscape.org/namespaces/inkscape"
   xmlns:sodipodi="http://sodipodi.sourceforge.net/DTD/sodipodi-0.dtd"
   xmlns:xlink="http://www.w3.org/1999/xlink"
   xmlns="http://www.w3.org/2000/svg"
   xmlns:svg="http://www.w3.org/2000/svg"><sodipodi:namedview
     id="namedview1"
     pagecolor="#ffffff"
     bordercolor="#000000"
     borderopacity="0.25"
     inkscape:showpageshadow="2"
     inkscape:pageopacity="0.0"
     inkscape:pagecheckerboard="0"
     inkscape:deskcolor="#d1d1d1"
     inkscape:document-units="mm"
     inkscape:zoom="0.70710678"
     inkscape:cx="-10.606602"
     inkscape:cy="604.5763"
     inkscape:window-width="1920"
     inkscape:window-height="1009"
     inkscape:window-x="1912"
     inkscape:window-y="-8"
     inkscape:window-maximized="1"
     inkscape:current-layer="svg1"><inkscape:page
       x="0"
       y="0"
       width="150.75848"
       height="127.50799"
       id="page2"
       margin="0"
       bleed="0" /></sodipodi:namedview><defs
     id="defs1"><linearGradient
       id="linearGradient49"
       inkscape:collect="always"><stop
         style="stop-color:#8b6542;stop-opacity:1;"
         offset="0.44479492"
         id="stop48" /><stop
         style="stop-color:#244d27;stop-opacity:1;"
         offset="1"
         id="stop49" /></linearGradient><linearGradient
       id="linearGradient46"
       inkscape:collect="always"><stop
         style="stop-color:#8b6542;stop-opacity:1;"
         offset="0.55185044"
         id="stop46" /><stop
         style="stop-color:#244d27;stop-opacity:1;"
         offset="1"
         id="stop47" /></linearGradient><linearGradient
       id="linearGradient37"
       inkscape:collect="always"><stop
         style="stop-color:#8b6542;stop-opacity:1;"
         offset="0.44164041"
         id="stop37" /><stop
         style="stop-color:#244d27;stop-opacity:1;"
         offset="1"
         id="stop38" /></linearGradient><linearGradient
       id="linearGradient35"
       inkscape:collect="always"><stop
         style="stop-color:#8b6542;stop-opacity:1;"
         offset="0"
         id="stop35" /><stop
         style="stop-color:#244d27;stop-opacity:1;"
         offset="0.90220821"
         id="stop36" /></linearGradient><linearGradient
       id="linearGradient33"
       inkscape:collect="always"><stop
         style="stop-color:#60bf57;stop-opacity:1;"
         offset="0.39432177"
         id="stop33" /><stop
         style="stop-color:#87c935;stop-opacity:1;"
         offset="1"
         id="stop34" /></linearGradient><linearGradient
       inkscape:collect="always"
       xlink:href="#linearGradient33"
       id="linearGradient34"
       x1="116.56522"
       y1="198.1002"
       x2="120.35732"
       y2="89.508858"
       gradientUnits="userSpaceOnUse" /><linearGradient
       inkscape:collect="always"
       xlink:href="#linearGradient35"
       id="linearGradient36"
       x1="-6.1772327"
       y1="182.08015"
       x2="-0.33590251"
       y2="126.50362"
       gradientUnits="userSpaceOnUse" /><linearGradient
       inkscape:collect="always"
       xlink:href="#linearGradient37"
       id="linearGradient38"
       x1="71.328827"
       y1="133.06413"
       x2="114.89397"
       y2="96.508644"
       gradientUnits="userSpaceOnUse" /><linearGradient
       inkscape:collect="always"
       xlink:href="#linearGradient49"
       id="linearGradient48"
       x1="100.30015"
       y1="173.00681"
       x2="104.00388"
       y2="208.24542"
       gradientUnits="userSpaceOnUse" /><linearGradient
       inkscape:collect="always"
       xlink:href="#linearGradient46"
       id="linearGradient50"
       gradientUnits="userSpaceOnUse"
       x1="52.364597"
       y1="174.93021"
       x2="63.90358"
       y2="206.6333" /></defs><g
     inkscape:groupmode="layer"
     id="layer2"
     inkscape:label="kiwi"
     transform="translate(-22.031458,-80.776213)"><path
       style="opacity:1;fill:#377339;fill-opacity:1;stroke:none;stroke-width:2;stroke-linecap:round;stroke-dasharray:none;stroke-dashoffset:0;stroke-opacity:1;paint-order:normal"
       d="m 88.740586,134.28195 c -7.937209,0.13011 -33.726597,3.57925 -33.830724,16.91536 -0.12514,16.0273 28.365762,3.77342 28.365762,3.77342 z"
       id="path15"
       sodipodi:nodetypes="cscc" /><path
       style="display:inline;opacity:1;fill:url(#linearGradient34);fill-opacity:1;stroke-width:0.264999"
       d="m 94.986257,86.398459 c 0,0 35.131903,-15.874415 52.567733,5.725199 17.43584,21.599612 24.3321,70.121872 13.14194,99.798712 0,0 3.1575,-0.79669 5.45619,-0.22641 0.67007,0.16624 0.85448,1.39716 0.84437,2.29651 -0.025,2.22063 -1.21256,5.76858 -4.93328,6.61722 0,0 10.54274,1.25462 10.72675,6.22302 H 80.598513 c 0,0 -37.171004,-28.89033 0.184015,-65.50929 0,0 10.488848,-8.83271 11.960966,-23.92193 z"
       id="path1"
       sodipodi:nodetypes="cscsscccccc" /><g
       inkscape:groupmode="layer"
       id="g60"
       inkscape:label="laptop"
       mask="none"><path
         id="rect59"
         mask="none"
         style="display:inline;opacity:1;fill:#244d27;stroke-width:1.28629;stroke-linecap:round"
         transform="matrix(1,0,-0.80402039,0.59460172,0,0)"
         d="m 259.00477,242.72644 h 27.27017 c 0.8467,0 -1.47691,4.44562 -1.33051,4.8981 2.00428,6.19451 4.05937,10.21697 8.5213,16.86518 1.86539,2.77941 -1.36328,3.05667 -3.05668,3.05667 h -31.40428 c -1.6934,0 -3.05668,-1.36327 -3.05668,-3.05667 v -18.7066 c 0,-1.6934 1.36328,-3.05668 3.05668,-3.05668 z"
         sodipodi:nodetypes="sssssssss" /><path
         id="path59"
         mask="none"
         style="display:inline;opacity:1;fill:url(#linearGradient36);fill-opacity:1;stroke-width:1.96687;stroke-linecap:round"
         d="m -24.394221,134.06512 c 6.288073,-2.51627 42.188677,-0.96193 45.053319,0 2.478937,0.83241 2.704323,4.01042 2.435957,6.99103 -0.353147,3.92223 -0.44808,9.50319 -0.272434,14.1554 0.04391,1.16305 0.394734,2.9188 0.780246,4.91174 0.518631,2.68111 -2.680277,2.02205 -5.961115,10.85228 -0.564618,1.51965 2.694474,3.87433 0.838126,4.0908 -1.856348,0.21646 -3.010538,0.23419 -7.069107,0.41335 -12.05045511,0.53198 -30.872053,0.71719 -35.804992,-0.61472 -6.569542,-1.77381 -6.669039,-13.71812 -6.791993,-19.59447 -0.122954,-5.87635 0.735005,-13.76477 2.13366,-17.12111 1.155118,-2.77193 2.917034,-3.38749 4.658333,-4.0843 z"
         sodipodi:nodetypes="ssssssssszss"
         transform="matrix(1,0,0.36983493,0.92909748,0,0)" /><ellipse
         style="opacity:1;mix-blend-mode:normal;fill:#8b6542;fill-opacity:1;stroke:none;stroke-width:1.00049;stroke-linecap:round;stroke-dasharray:none;stroke-dashoffset:0;stroke-opacity:1;paint-order:normal"
         id="ellipse59"
         cx="-60.278023"
         cy="136.68462"
         rx="4.3589096"
         ry="5.4619884"
         transform="matrix(0.70293206,-0.71125699,0.67957192,0.73360889,0,0)" /><ellipse
         style="fill:#87c935;fill-opacity:1;stroke:none;stroke-width:0.697358;stroke-linecap:round;stroke-dasharray:none;stroke-dashoffset:0;stroke-opacity:1;paint-order:normal"
         id="ellipse60"
         cx="-59.438435"
         cy="133.41722"
         rx="1.7788295"
         ry="2.3288975"
         transform="matrix(0.66253829,-0.74902804,0.67324102,0.7394231,0,0)" /></g><g
       inkscape:groupmode="layer"
       id="layer4"
       inkscape:label="brown"><path
         style="display:inline;opacity:1;fill:url(#linearGradient38);fill-opacity:1;stroke-width:0.264999"
         d="m 121.54182,110.50093 c 0,0 -0.0808,10.06373 -23.001857,12.05297 -19.243016,1.67004 -34.120992,-8.43354 -33.858737,-9.38476 0.518948,-1.88228 21.717234,7.32028 34.468814,-0.61693 0,0 1.08303,-5.75471 3.25295,-5.98543 2.50382,-0.26622 7.97882,5.72734 8.73698,6.54075 0,0 2.67128,1.65285 10.40185,-2.6066 z"
         id="path2"
         sodipodi:nodetypes="csscscc" /><path
         style="opacity:1;fill:url(#linearGradient48);fill-opacity:1;stroke:none;stroke-width:0.264999"
         d="m 106.16822,206.91595 c 2.84176,-2.50707 17.25015,-31.56396 12.88174,-30.06538 -9.13758,3.13463 -14.31257,24.60816 -14.31257,24.60816 1.62647,-9.52953 -3.7178,-28.10819 -5.528343,-28.46052 -5.751566,-1.11926 2.254193,29.26164 2.254193,29.26164 -4.508373,-8.37268 -16.045236,-16.98335 -16.90299,-15.43166 -1.574617,2.84849 12.218536,19.85684 16.62042,20.97347 1.54221,0.39121 2.63472,1.19002 4.98755,-0.88571 z"
         id="path3"
         sodipodi:nodetypes="sscscsss" /><path
         style="opacity:1;fill:url(#linearGradient50);fill-opacity:1;stroke:none;stroke-width:0.264999"
         d="m 65.583283,206.17388 c 2.45389,-2.88781 12.557426,-33.70701 8.44832,-31.59893 -8.595183,4.40955 -10.645104,26.40252 -10.645104,26.40252 0.246518,-9.66419 -7.700513,-27.28726 -9.542837,-27.37696 -5.852524,-0.28497 6.416964,28.63822 6.416964,28.63822 -5.659739,-7.64164 -18.309725,-14.51337 -18.936684,-12.85493 -1.150938,3.04445 14.933443,17.90472 19.449791,18.38016 1.582312,0.16657 2.777857,0.80088 4.80955,-1.59008 z"
         id="path6"
         sodipodi:nodetypes="sscscsss" /></g><g
       inkscape:groupmode="layer"
       id="layer5"
       inkscape:label="line"><ellipse
         style="opacity:1;fill:#244d27;fill-opacity:1;stroke-width:0.249128"
         id="path5"
         cx="118.74155"
         cy="84.061111"
         rx="2.0471654"
         ry="2.921236"
         transform="rotate(12.767331)" /><ellipse
         style="opacity:1;fill:#244d27;fill-opacity:1;stroke-width:0.249128"
         id="path5-5"
         ry="2.921236"
         rx="2.0471654"
         cy="146.94978"
         cx="46.333309"
         transform="rotate(-28.793923)" /><path
         style="opacity:1;fill:none;stroke:#377339;stroke-width:2;stroke-linecap:round;stroke-dasharray:none;stroke-dashoffset:0;stroke-opacity:1;paint-order:normal"
         d="m 129.30317,147.37651 c 0,0 -18.94894,17.58635 -27.68089,8.96046 -1.835996,-1.8137 0.77032,-6.68816 5.13967,-5.79026 4.36935,0.89791 0.14558,16.8861 -18.606894,14.50818 -8.995282,-1.14065 -7.969738,-10.08416 -5.7252,-13.85758 2.244538,-3.77343 7.742031,-9.95404 20.168314,-9.56369"
         id="path7"
         sodipodi:nodetypes="cszszc" /></g></g></svg>
